<mxfile host="app.diagrams.net" modified="2023-11-26T19:26:06.489Z" agent="Mozilla/5.0 (Macintosh; Intel Mac OS X 10_15_7) AppleWebKit/537.36 (KHTML, like Gecko) Chrome/119.0.0.0 Safari/537.36" etag="SCys7nntGX8YO_wMiMTo" version="22.1.4" type="device">
  <diagram name="Page-1" id="gj3EzX3tOehPOAYZgZ_A">
    <mxGraphModel dx="1366" dy="725" grid="1" gridSize="10" guides="1" tooltips="1" connect="1" arrows="1" fold="1" page="1" pageScale="1" pageWidth="850" pageHeight="1100" math="0" shadow="0">
      <root>
        <mxCell id="0" />
        <mxCell id="1" parent="0" />
        <mxCell id="tdM8rI832HqmmriT_yJo-10" value="OrdersOrchestrator" style="shape=umlLifeline;perimeter=lifelinePerimeter;whiteSpace=wrap;html=1;container=1;dropTarget=0;collapsible=0;recursiveResize=0;outlineConnect=0;portConstraint=eastwest;newEdgeStyle={&quot;curved&quot;:0,&quot;rounded&quot;:0};" vertex="1" parent="1">
          <mxGeometry x="270" y="90" width="160" height="470" as="geometry" />
        </mxCell>
        <mxCell id="tdM8rI832HqmmriT_yJo-47" value="" style="html=1;points=[[0,0,0,0,5],[0,1,0,0,-5],[1,0,0,0,5],[1,1,0,0,-5]];perimeter=orthogonalPerimeter;outlineConnect=0;targetShapes=umlLifeline;portConstraint=eastwest;newEdgeStyle={&quot;curved&quot;:0,&quot;rounded&quot;:0};" vertex="1" parent="tdM8rI832HqmmriT_yJo-10">
          <mxGeometry x="75" y="70" width="10" height="360" as="geometry" />
        </mxCell>
        <mxCell id="tdM8rI832HqmmriT_yJo-11" value="CustomerValidationEngine" style="shape=umlLifeline;perimeter=lifelinePerimeter;whiteSpace=wrap;html=1;container=1;dropTarget=0;collapsible=0;recursiveResize=0;outlineConnect=0;portConstraint=eastwest;newEdgeStyle={&quot;curved&quot;:0,&quot;rounded&quot;:0};" vertex="1" parent="1">
          <mxGeometry x="480" y="90" width="160" height="470" as="geometry" />
        </mxCell>
        <mxCell id="tdM8rI832HqmmriT_yJo-50" value="" style="html=1;points=[[0,0,0,0,5],[0,1,0,0,-5],[1,0,0,0,5],[1,1,0,0,-5]];perimeter=orthogonalPerimeter;outlineConnect=0;targetShapes=umlLifeline;portConstraint=eastwest;newEdgeStyle={&quot;curved&quot;:0,&quot;rounded&quot;:0};" vertex="1" parent="tdM8rI832HqmmriT_yJo-11">
          <mxGeometry x="75" y="100" width="10" height="110" as="geometry" />
        </mxCell>
        <mxCell id="tdM8rI832HqmmriT_yJo-12" value="TaxesCalculationEngine" style="shape=umlLifeline;perimeter=lifelinePerimeter;whiteSpace=wrap;html=1;container=1;dropTarget=0;collapsible=0;recursiveResize=0;outlineConnect=0;portConstraint=eastwest;newEdgeStyle={&quot;curved&quot;:0,&quot;rounded&quot;:0};" vertex="1" parent="1">
          <mxGeometry x="680" y="90" width="160" height="470" as="geometry" />
        </mxCell>
        <mxCell id="tdM8rI832HqmmriT_yJo-53" value="" style="html=1;points=[[0,0,0,0,5],[0,1,0,0,-5],[1,0,0,0,5],[1,1,0,0,-5]];perimeter=orthogonalPerimeter;outlineConnect=0;targetShapes=umlLifeline;portConstraint=eastwest;newEdgeStyle={&quot;curved&quot;:0,&quot;rounded&quot;:0};" vertex="1" parent="tdM8rI832HqmmriT_yJo-12">
          <mxGeometry x="75" y="280" width="10" height="110" as="geometry" />
        </mxCell>
        <mxCell id="tdM8rI832HqmmriT_yJo-41" value="" style="shape=umlLifeline;perimeter=lifelinePerimeter;whiteSpace=wrap;html=1;container=1;dropTarget=0;collapsible=0;recursiveResize=0;outlineConnect=0;portConstraint=eastwest;newEdgeStyle={&quot;curved&quot;:0,&quot;rounded&quot;:0};participant=umlActor;" vertex="1" parent="1">
          <mxGeometry x="87.5" y="90" width="25" height="475" as="geometry" />
        </mxCell>
        <mxCell id="tdM8rI832HqmmriT_yJo-49" value="&lt;font style=&quot;font-size: 8px;&quot;&gt;ORDER_MANAGEMENT_SYSTEM_RESPONSE&lt;/font&gt;" style="html=1;verticalAlign=bottom;endArrow=open;dashed=1;endSize=8;curved=0;rounded=0;exitX=0;exitY=1;exitDx=0;exitDy=-5;" edge="1" source="tdM8rI832HqmmriT_yJo-47" parent="1" target="tdM8rI832HqmmriT_yJo-41">
          <mxGeometry relative="1" as="geometry">
            <mxPoint x="280" y="235" as="targetPoint" />
          </mxGeometry>
        </mxCell>
        <mxCell id="tdM8rI832HqmmriT_yJo-48" value="&lt;font style=&quot;font-size: 8px;&quot;&gt;ORDER_MANAGEMENT_SYSTEM_REQUEST&lt;/font&gt;" style="html=1;verticalAlign=bottom;endArrow=block;curved=0;rounded=0;entryX=0;entryY=0;entryDx=0;entryDy=5;" edge="1" target="tdM8rI832HqmmriT_yJo-47" parent="1" source="tdM8rI832HqmmriT_yJo-41">
          <mxGeometry x="0.0005" relative="1" as="geometry">
            <mxPoint x="280" y="165" as="sourcePoint" />
            <mxPoint as="offset" />
          </mxGeometry>
        </mxCell>
        <mxCell id="tdM8rI832HqmmriT_yJo-51" value="&lt;font style=&quot;font-size: 8px;&quot;&gt;CUSTOMER_VALIDATION_ENGINE_REQUEST&lt;/font&gt;" style="html=1;verticalAlign=bottom;endArrow=block;curved=0;rounded=0;entryX=0;entryY=0;entryDx=0;entryDy=5;" edge="1" target="tdM8rI832HqmmriT_yJo-50" parent="1" source="tdM8rI832HqmmriT_yJo-47">
          <mxGeometry relative="1" as="geometry">
            <mxPoint x="460" y="195" as="sourcePoint" />
          </mxGeometry>
        </mxCell>
        <mxCell id="tdM8rI832HqmmriT_yJo-52" value="&lt;font style=&quot;font-size: 8px;&quot;&gt;CUSTOMER_VALIDATION_ENGINE_RESPONSE&lt;/font&gt;" style="html=1;verticalAlign=bottom;endArrow=open;dashed=1;endSize=8;curved=0;rounded=0;exitX=0;exitY=1;exitDx=0;exitDy=-5;" edge="1" source="tdM8rI832HqmmriT_yJo-50" parent="1" target="tdM8rI832HqmmriT_yJo-47">
          <mxGeometry x="0.0018" relative="1" as="geometry">
            <mxPoint x="360" y="265" as="targetPoint" />
            <mxPoint as="offset" />
          </mxGeometry>
        </mxCell>
        <mxCell id="tdM8rI832HqmmriT_yJo-54" value="&lt;font style=&quot;font-size: 8px;&quot;&gt;TAXES_CALCULATION_ENGINE.REQUEST&lt;/font&gt;" style="html=1;verticalAlign=bottom;endArrow=block;curved=0;rounded=0;entryX=0;entryY=0;entryDx=0;entryDy=5;" edge="1" target="tdM8rI832HqmmriT_yJo-53" parent="1" source="tdM8rI832HqmmriT_yJo-47">
          <mxGeometry relative="1" as="geometry">
            <mxPoint x="360" y="375" as="sourcePoint" />
            <mxPoint as="offset" />
          </mxGeometry>
        </mxCell>
        <mxCell id="tdM8rI832HqmmriT_yJo-55" value="&lt;font style=&quot;font-size: 8px;&quot;&gt;TAXES_CALCULATION_ENGINE.RESPONSE&lt;/font&gt;" style="html=1;verticalAlign=bottom;endArrow=open;dashed=1;endSize=8;curved=0;rounded=0;exitX=0;exitY=1;exitDx=0;exitDy=-5;" edge="1" source="tdM8rI832HqmmriT_yJo-53" parent="1" target="tdM8rI832HqmmriT_yJo-47">
          <mxGeometry relative="1" as="geometry">
            <mxPoint x="670" y="405" as="targetPoint" />
          </mxGeometry>
        </mxCell>
        <mxCell id="tdM8rI832HqmmriT_yJo-56" value="" style="shape=umlDestroy;whiteSpace=wrap;html=1;strokeWidth=3;targetShapes=umlLifeline;" vertex="1" parent="1">
          <mxGeometry x="85" y="550" width="30" height="30" as="geometry" />
        </mxCell>
        <mxCell id="tdM8rI832HqmmriT_yJo-57" value="" style="shape=umlDestroy;whiteSpace=wrap;html=1;strokeWidth=3;targetShapes=umlLifeline;" vertex="1" parent="1">
          <mxGeometry x="335" y="550" width="30" height="30" as="geometry" />
        </mxCell>
        <mxCell id="tdM8rI832HqmmriT_yJo-58" value="" style="shape=umlDestroy;whiteSpace=wrap;html=1;strokeWidth=3;targetShapes=umlLifeline;" vertex="1" parent="1">
          <mxGeometry x="545" y="550" width="30" height="30" as="geometry" />
        </mxCell>
        <mxCell id="tdM8rI832HqmmriT_yJo-59" value="" style="shape=umlDestroy;whiteSpace=wrap;html=1;strokeWidth=3;targetShapes=umlLifeline;" vertex="1" parent="1">
          <mxGeometry x="745" y="550" width="30" height="30" as="geometry" />
        </mxCell>
        <mxCell id="tdM8rI832HqmmriT_yJo-60" value="OrdersManagementSystem" style="text;html=1;strokeColor=none;fillColor=none;align=center;verticalAlign=middle;whiteSpace=wrap;rounded=0;" vertex="1" parent="1">
          <mxGeometry x="70" y="60" width="60" height="30" as="geometry" />
        </mxCell>
      </root>
    </mxGraphModel>
  </diagram>
</mxfile>
